# xmcd CD database file
#
# Track frame offsets:
#	150
#	11675
#	24120
#	38292
#	50412
#	62511
#	76115
#	86698
#	96514
#	110026
#	120984
#	133536
#	145163
#	157823
#	168828
#	183238
#	192247
#	205957
#	219673
#	228540
#
# Disc length: 3220 seconds
#
# Revision: 4
# Processed by: cddbd v1.5.2PL0 Copyright (c) Steve Scherf et al.
# Submitted via: CDex 1.51
#
DISCID=fc0c9214
DTITLE=B.B. King - B.B. King and The Kings Of Electric Blues - CD3
DYEAR=2010
DGENRE=Blues
TTITLE0=Pee Wee Crayton - You Know Yeah!
TTITLE1=Eddie Boyd - Five Long Years
TTITLE2=Willie Mabon - I Don't Know
TTITLE3=Etta James - W-O-M-A-N
TTITLE4=Willie Nix - Just Can't Say
TTITLE5=Guitar Slim - The Things That I Used To Do
TTITLE6=James Cotton - Straighten Up Baby
TTITLE7=John Lee Hooker - Dimples
TTITLE8=Walter Horton - Black Gal Blues
TTITLE9=Billy Emerson - Red Hot
TTITLE10=Slim Harpo - I Got Love If You Want It
TTITLE11=Sonny Boy Williamson - Don't Start Me To Talkin'
TTITLE12=Jimmy Reed - The Sun Is Shining
TTITLE13=Junior Wells - Tomorrow Night
TTITLE14=Little Walter - Sad  Hours
TTITLE15=Ruth Brown - Mama, He Treats Your Daughter Mean
TTITLE16=Buddy Guy - Sit And Cry (The Blues)
TTITLE17=Muddy Waters - I'm Ready
TTITLE18=Jimmy Rogers - Ludella
TTITLE19=Howlin' Wolf - Evil
EXTD=YEAR: 2010
EXTT0=
EXTT1=
EXTT2=
EXTT3=
EXTT4=
EXTT5=
EXTT6=
EXTT7=
EXTT8=
EXTT9=
EXTT10=
EXTT11=
EXTT12=
EXTT13=
EXTT14=
EXTT15=
EXTT16=
EXTT17=
EXTT18=
EXTT19=
PLAYORDER=
